<svg xmlns="http://www.w3.org/2000/svg" xmlns:xlink="http://www.w3.org/1999/xlink" width="1024" zoomAndPan="magnify" viewBox="0 0 768 767.999994" height="1024" preserveAspectRatio="xMidYMid meet" version="1.0"><defs><clipPath id="a7e03d7464"><path d="M 30.121094 150.339844 L 451.734375 150.339844 L 451.734375 220.148438 L 30.121094 220.148438 Z M 30.121094 150.339844 " clip-rule="nonzero"/></clipPath><clipPath id="3b6413a01c"><path d="M 64.996094 150.339844 L 416.609375 150.339844 C 425.859375 150.339844 434.730469 154.011719 441.269531 160.554688 C 447.8125 167.09375 451.488281 175.964844 451.488281 185.214844 C 451.488281 194.464844 447.8125 203.335938 441.269531 209.878906 C 434.730469 216.417969 425.859375 220.09375 416.609375 220.09375 L 64.996094 220.09375 C 55.746094 220.09375 46.875 216.417969 40.335938 209.878906 C 33.792969 203.335938 30.121094 194.464844 30.121094 185.214844 C 30.121094 175.964844 33.792969 167.09375 40.335938 160.554688 C 46.875 154.011719 55.746094 150.339844 64.996094 150.339844 " clip-rule="nonzero"/></clipPath><clipPath id="abc3a5ebaa"><path d="M 30.121094 325.789062 L 737.878906 325.789062 L 737.878906 397.671875 L 30.121094 397.671875 Z M 30.121094 325.789062 " clip-rule="nonzero"/></clipPath><clipPath id="5895e1a16c"><path d="M 65.984375 325.789062 L 702.015625 325.789062 C 721.824219 325.789062 737.878906 341.847656 737.878906 361.652344 C 737.878906 381.460938 721.824219 397.519531 702.015625 397.519531 L 65.984375 397.519531 C 46.175781 397.519531 30.121094 381.460938 30.121094 361.652344 C 30.121094 341.847656 46.175781 325.789062 65.984375 325.789062 " clip-rule="nonzero"/></clipPath><clipPath id="bbd739d280"><path d="M 30.121094 502.921875 L 570.617188 502.921875 L 570.617188 572.730469 L 30.121094 572.730469 Z M 30.121094 502.921875 " clip-rule="nonzero"/></clipPath><clipPath id="a5efe15212"><path d="M 64.996094 502.921875 L 535.703125 502.921875 C 544.953125 502.921875 553.824219 506.597656 560.367188 513.136719 C 566.90625 519.679688 570.582031 528.550781 570.582031 537.800781 C 570.582031 547.050781 566.90625 555.921875 560.367188 562.460938 C 553.824219 569.003906 544.953125 572.675781 535.703125 572.675781 L 64.996094 572.675781 C 55.746094 572.675781 46.875 569.003906 40.335938 562.460938 C 33.792969 555.921875 30.121094 547.050781 30.121094 537.800781 C 30.121094 528.550781 33.792969 519.679688 40.335938 513.136719 C 46.875 506.597656 55.746094 502.921875 64.996094 502.921875 " clip-rule="nonzero"/></clipPath></defs><rect x="-76.8" width="921.6" fill="#ffffff" y="-76.799999" height="921.599993" fill-opacity="1"/><rect x="-76.8" width="921.6" fill="#ffffff" y="-76.799999" height="921.599993" fill-opacity="1"/><rect x="-76.8" width="921.6" fill="#2c2f45" y="-76.799999" height="921.599993" fill-opacity="1"/><g clip-path="url(#a7e03d7464)"><g clip-path="url(#3b6413a01c)"><path fill="#ffffff" d="M 30.121094 150.339844 L 451.734375 150.339844 L 451.734375 220.148438 L 30.121094 220.148438 Z M 30.121094 150.339844 " fill-opacity="1" fill-rule="nonzero"/></g></g><g clip-path="url(#abc3a5ebaa)"><g clip-path="url(#5895e1a16c)"><path fill="#ffffff" d="M 30.121094 325.789062 L 737.878906 325.789062 L 737.878906 397.671875 L 30.121094 397.671875 Z M 30.121094 325.789062 " fill-opacity="1" fill-rule="nonzero"/></g></g><g clip-path="url(#bbd739d280)"><g clip-path="url(#a5efe15212)"><path fill="#ffffff" d="M 30.121094 502.921875 L 570.617188 502.921875 L 570.617188 572.730469 L 30.121094 572.730469 Z M 30.121094 502.921875 " fill-opacity="1" fill-rule="nonzero"/></g></g></svg>